/* XPM */
static char *pupsicon[] = {
/* width height num_colors chars_per_pixel */
"    78    63      241            2",
/* colors */
".. c #040204",
".# c #048614",
".a c #848554",
".b c #c4c276",
".c c #044a04",
".d c #4c4224",
".e c #e4e28a",
".f c #a4a464",
".g c #64643c",
".h c #540424",
".i c #042404",
".j c #c4c2ba",
".k c #a4a497",
".l c #545334",
".m c #6c723c",
".n c #dce2d8",
".o c #2c2413",
".p c #848284",
".q c #2c3624",
".r c #b4b49a",
".s c #d4d2bd",
".t c #240e04",
".u c #64582d",
".v c #7c6c38",
".w c #646654",
".x c #d4d380",
".y c #f4f4ea",
".z c #949280",
".A c #ecf294",
".B c #b4b46d",
".C c #4c4940",
".D c #041204",
".E c #84743c",
".F c #94955a",
".G c #2c2d1b",
".H c #3c3419",
".I c #a4a3a4",
".J c #dcdbca",
".K c #747274",
".L c #b4b3b1",
".M c #d4cec8",
".N c #ece4e0",
".O c #d4c976",
".P c #045c14",
".Q c #948274",
".R c #6c6a3c",
".S c #3c2a18",
".T c #a4a684",
".U c #c4c4c4",
".V c #6c6a54",
".W c #fcfe9c",
".X c #948b51",
".Y c #4c4c31",
".Z c #140604",
".0 c #e4ea8c",
".1 c #645c52",
".2 c #dcda83",
".3 c #a49890",
".4 c #2c2c28",
".5 c #acaa65",
".6 c #5c5b3a",
".7 c #241807",
".8 c #fcfbf3",
".9 c #c4b969",
"#. c #5c4e44",
"## c #141206",
"#a c #b4ae8c",
"#b c #4c4e3c",
"#c c #bcbab0",
"#d c #1c1c0c",
"#e c #8c826c",
"#f c #c4c4a4",
"#g c #444325",
"#h c #143214",
"#i c #8c8a76",
"#j c #d4d5d7",
"#k c #9c9a5d",
"#l c #5c5b51",
"#m c #3c3b21",
"#n c #a4aaa4",
"#o c #dcdbdc",
"#p c #ecece0",
"#q c #040a04",
"#r c #746638",
"#s c #746357",
"#t c #7c7a65",
"#u c #04fe34",
"#v c #8c8c54",
"#w c #cccc7a",
"#x c #b4a65c",
"#y c #242513",
"#z c #ccccb3",
"#A c #b4a69c",
"#B c #e4e4d5",
"#C c #2c221c",
"#D c #bcbca1",
"#E c #645e2c",
"#F c #dcd481",
"#G c #fcf597",
"#H c #bcbb73",
"#I c #544b28",
"#J c #f4ee92",
"#K c #44433f",
"#L c #ecebed",
"#M c #aca35a",
"#N c #646244",
"#O c #aca596",
"#P c #545244",
"#Q c #fcf4ec",
"#R c #544940",
"#S c #342c19",
"#T c #d4ce94",
"#U c #046c10",
"#V c #948b7a",
"#W c #6c6e44",
"#X c #ccccc8",
"#Y c #fcfea4",
"#Z c #241e1f",
"#0 c #1c150a",
"#1 c #b4aaa4",
"#2 c #04a018",
"#3 c #8c8449",
"#4 c #4c452d",
"#5 c #7c7644",
"#6 c #4c3d1c",
"#7 c #8c0264",
"#8 c #847e6f",
"#9 c #340614",
"a. c #04ae24",
"a# c #043e0c",
"aa c #9c9e7b",
"ab c #3c3a34",
"ac c #140e0c",
"ad c #9c9a8c",
"ae c #847e44",
"af c #747255",
"ag c #a49654",
"ah c #5c5650",
"ai c #d4ce80",
"aj c #ccbe70",
"ak c #343533",
"al c #6c6a64",
"am c #948e88",
"an c #a49e94",
"ao c #241e12",
"ap c #645e44",
"aq c #7c7b5a",
"ar c #8c8b89",
"as c #7c7b7a",
"at c #24221f",
"au c #7c725c",
"av c #ece68f",
"aw c #74764c",
"ax c #8c857b",
"ay c #bcb6a4",
"az c #dcd6bc",
"aA c #2c0a04",
"aB c #6c6559",
"aC c #f4f294",
"aD c #443224",
"aE c #e4dec0",
"aF c #7c7567",
"aG c #1c0204",
"aH c #6c5e5c",
"aI c #e4dc86",
"aJ c #c4bcac",
"aK c #a49c5a",
"aL c #acaca7",
"aM c #3c0224",
"aN c #443b31",
"aO c #048e14",
"aP c #04520c",
"aQ c #042a0c",
"aR c #046210",
"aS c #8c8a6c",
"aT c #544e40",
"aU c #ccc574",
"aV c #544420",
"aW c #6c6638",
"aX c #ccc5bc",
"aY c #5c532e",
"aZ c #34240e",
"a0 c #34321f",
"a1 c #846a34",
"a2 c #bcb56c",
"a3 c #9c9554",
"a4 c #545350",
"a5 c #bcb6b0",
"a6 c #746b39",
"a7 c #746e5c",
"a8 c #9c8a4c",
"a9 c #eced91",
"b. c #ac9a94",
"b# c #342d26",
"ba c #b4ac64",
"bb c #dcd6d4",
"bc c #443e24",
"bd c #e4ded7",
"be c #0c0c05",
"bf c #342624",
"bg c #f4eeec",
"bh c #6c664c",
"bi c #5c5541",
"bj c #0c6a14",
"bk c #9c8e74",
"bl c #746d68",
"bm c #0c0404",
"bn c #b4b6a4",
"bo c #d4d2cc",
"bp c #240a14",
"bq c #f4f5f4",
"br c #3c3424",
"bs c #aca6a4",
"bt c #3c2e24",
"bu c #645e5c",
"bv c #5c5e44",
"bw c #241a14",
"bx c #fcfefc",
"by c #141214",
"bz c #b4ac9c",
"bA c #bcbdbc",
"bB c #444234",
"bC c #5c5e5c",
"bD c #9c968c",
"bE c #cccabc",
"bF c #e4e4e4",
"bG c #544d34",
"bH c #aca464",
"bI c #ccced4",
"bJ c #1c1614",
"bK c #9c9d9c",
"bL c #8c8684",
"bM c #6c6664",
"bN c #f4f69c",
"bO c #443e3c",
"bP c #dccec4",
"bQ c #dcce7c",
"bR c #646664",
"bS c #4c4e4c",
"bT c #e4decc",
"bU c #e4e68c",
/* pixels */
"bxbxbxbxbxbxbxbxbxbxbxbxbxbxbxbxbxbxbxbxbxbxbxbxbxbxbxbxbxbxbxbxbxbx#B#z#Dbn.r.r.raL.r.rbn#D#z#Bbxbxbxbxbxbxbxbxbxbxbxbxbxbxbxbxbxbxbxbxbxbxbxbxbxbxbxbxbxbx",
"bxbxbxbxbxbxbxbxbxbxbxbxbxbxbxbxbxbxbxbxbxbxbxbxbxbxbxbxbxbx.y#DaS#ta0####be##bebe##be##be####a0aq#i#D#Qbxbxbxbxbxbxbxbxbxbxbxbxbxbxbxbxbxbxbxbxbxbxbxbxbxbx",
"bxbxbxbxbxbxbxbxbxbxbxbxbxbxbxbxbxbxbxbxbxbxbxbxbxbxbxbg.saf#b##be#d#y#W#v#k.f.f.5.f.f.f#k#v.m#y#dbe.DbGaw.s#pbxbxbxbxbxbxbxbxbxbxbxbxbxbxbxbxbxbxbxbxbxbxbx",
"bxbxbxbxbxbxbxbxbxbxbxbxbxbxbxbxbxbxbxbxbxbxbxbxbx#B.r.6#d..a0.l.5#w.2.W#Y.W.W.W.W.W.W.W.W#Y#Y.x#w.B.la0..#dbv.r#Bbxbxbxbxbxbxbxbxbxbxbxbxbxbxbxbxbxbxbxbxbx",
"bxbxbxbxbxbxbxbxbxbxbxbxbxbxbxbxbxbxbxbxbxbxbx.y.Tap###d.6#k.0aC#Y#Y.W.W.W.W.W.W.W.W.W.W.W.W.W#Y#Y.WaC.0#k.6#d##bv.T.ybxbxbxbxbxbxbxbxbxbxbxbxbxbxbxbxbxbxbx",
"bxbxbxbxbxbxbxbxbxbxbxbxbxbxbxbxbxbxbxbxbx.8#f#N#d#d.g.5a9.W.W.W.W.W.W.W.W.W.W.W.W.W.W.W.W.W.W.W.W.W.W#Y.Wa9.f.g#dao#N#fbxbxbxbxbxbxbxbxbxbxbxbxbxbxbxbxbxbx",
"bxbxbxbxbxbxbxbxbxbxbxbxbxbxbxbxbxbxbxbx#paa#Sbe.l#H.e.W.W.W.W.W.W.W.W.W.W.W.W.W.W.W.W.W.W.W.W.W.W.W.W.W.W.W.W.e#H.lbe.Gaa.Nbxbxbxbxbxbxbxbxbxbxbxbxbxbxbxbx",
"bxbxbxbxbxbxbxbxbxbxbxbxbxbxbxbxbxbxbx#z.6be#m.fa9.W.W.W.W.W.W.W.W.W.W.W.W.W.W.W.W.W.W.W.W.W.W.W.W.W.W.W.W.W.W.W.Wa9#k#m##.6.sbxbxbxbxbxbxbxbxbxbxbxbxbxbxbx",
"bxbxbxbxbxbxbxbxbxbxbxbxbxbxbxbxbxbxaJ.Ybe.g#H.W.W.W.W.W.W.W.W.W.W.W.W.W.W.W.W.W.W.W.W.W.W.W.W.W.W.W.W.W.W.W.W.W.W.W.W#H.gbe.Y#Dbxbxbxbxbxbxbxbxbxbxbxbxbxbx",
"bxbxbxbxbxbxbxbxbxbxbxbxbxbxbxbx.r#m.G.FaC.W.W.W.W.W.W.W.W.W.W.W.W.W.W.W.W.W.W.W.W.W.W.W.W.W.W.W.W.W.W.W.W.W.W.W.W.W.W.W.WaC.F.G#m.rbxbxbxbxbxbxbxbxbxbxbxbx",
"bxbxbxbxbxbxbxbxbxbxbxbxbxbxbxay#m.G.FaC.W.W.W.W.W.W.W.W.W.W.W.W.W.W.W.W.W.W.W.W.W.W.W.W.W.W.W.W.W.W.W.W.W.W.W.W.W.W.W.W.W.WaC#k.G#m.rbxbxbxbxbxbxbxbxbxbxbx",
"bxbxbxbxbxbxbxbxbxbxbxbxbxbx#D#g.G.FaC.W.W.W.W.W.W.W.W.W.W.W.W.W.W.W.W.W.W.W.W.W.W.W.W.W.W.W.WaU.2.W.W.W.W.W.W.W.W.W.W.W.W.W.W.A#k.G#g#Dbxbxbxbxbxbxbxbxbxbx",
"bxbxbxbxbxbxbxbxbxbxbxbxbx.s.Y#y.FaC.W.W.W.W.W.W.W.W.W.W.W.W.W.W.W.W.W.W.W.W.W.W.W.W.W.W.W.W.W#x.SaI.W.W.W.W.W.W.W.W.W.W.W.W.W.WaC.F.G#g#zbxbxbxbxbxbxbxbxbx",
"bxbxbxbxbxbxbxbxbxbxbxbx#p.6be.aaC.W.W.W.W.W.W.W.W.W.W.W.W.W.W.W.W.W.W.W.W.W.W.W.W.W.W.W.W.W.W#J.Ha6.W.W.W.W.W.W.W.W.W.W.W.W.W.W.WaC#v##.l.Nbxbxbxbxbxbxbxbx",
"bxbxbxbxbxbxbxbxbxbxbx.8aa...g#J.W.W.W.W.W.W.W.W.W.W.W.W.W.W.W.W.W.W.W.W.W.W.W.W.W.Wba#vai.W.W#JaU.7#raC.W.W.W.W.W.W.W.W.W.W.W.W.W.Wa9#W#qaabqbxbxbxbxbxbxbx",
"bxbxbxbxbxbxbxbxbxbxbx#fa0#m#H.W.W.W.W.W.W.W.W.W.W.W.W.W.W.W.W.W.W.W.W.W.W.W.W.W.Wba.t#6a8aU.u.H.E.Gbm.x.W.W.W.W.W.W.W.W.W.W.W.W.W.W.W#H#m#S#fbxbxbxbxbxbxbx",
"bxbxbxbxbxbxbxbxbxbx.yapbe#k.W.W.W.W.W.W.W.W.W.W.W.W.W.W#Gai#Mae#5#x.2.W.W.W.Waj.v#0..aV#6.ZaF.j#l..##.5aU#H.e.W.W.W.W.W.W.W.W.W.W.W.W.W.fbebv.ybxbxbxbxbxbx",
"bxbxbxbxbxbxbxbxbxbx.T#d.laC.W.W.W.W.W.W.W.W.W.W.W.W.W#J#E#0biam#t#y#0#r#JaCaWbm............bv.n#BbS..aZaY.Raj.W.W.W.W.W.W.W.W.W.W.W.W.WaC.l#d#Obxbxbxbxbxbx",
"bxbxbxbxbxbxbxbxbx.r##.gbU.W.W.W.W.W.W.W.W.W.W.W.W.W.W.bacbe#n.8bxbxbx.y.kbA.IakbSararaL#B.8.8#jbD.y.8bKao.F#G.W.W.W.W.W.W.W.W.W.W.W.W.W.WbU.g##.rbxbxbxbxbx",
"bxbxbxbxbxbxbxbxbgbv#d.5.W.W.W.W.W.W.W.W.W.W.W.W.W.W.W#F#d..ab#Lbxbxbxbxbxbxbq.y#Lak....akasbqbqbgbxbxbx#O.Gag.W.W.W.W.W.W.W.W.W.W.W.W.W.W.W.5#d.6.ybxbxbxbx",
"bxbxbxbxbxbxbxbx.s#d.l.A.W.W.W.W.W.W.W.W.W.W.W.W.W.W.W.W.u..ak#Lbxbxbxbxbxbxbxbx.8bS......bC.8.8bFbz.8bxbxaL#W.W.W.W.W.W.W.W.W.W.W.W.W.W.W.WaC.l#d.sbxbxbxbx",
"bxbxbxbxbxbxbxbxafbe#k.W.W.W.W.W.W.W.W.W.W.W.W.W.W.W.W#Ya6..ak.NbxbxbxbxbxbxbxbxbxbFasakakasbKbIbPaobsbxbx.Q.m.W.W.W.W.W.W.W.W.W.W.W.W.W.W.W.W#k#qafbxbxbxbx",
"bxbxbxbxbxbxbx.8.Y.Ga9.W.W.W.W.W.W.W.W.W.W.W.W.W.W.W.Wa2.Gadaxbdbxbxbxbxbxbxbxbxbxbxbx.8.8.U#KbA#j##bybE.U#y#x.W.W.W.W.W.W.W.W.W.W.W.W.W.W.W.Wa9.G.Y#Qbxbxbx",
"bxbxbxbxbxbxbxay.D.laC.W.W.W.W.W.W.W.W.W.W.W.W.W.W.Wav.S.z.8.jbqbxbxbxbxbxbxbxbxbxbxbxbxbxbxbF#L#cbe..#d#Z#3.W.W.W.W.W.W.W.W.W.W.W.W.W.W.W.W.WaC.l###Dbxbxbx",
"bxbxbxbxbxbxbxaSbm.B.W.W.W.W.W.W.W.W.W.W.W.W.W.W.W.W.X#Rbg.s.ybxbqbxbxbxbxbxbxbxbxbxbxbxbxbxbxbxaF....bm.F#Y.W.W.W.W.W.W.W.W.W.W.W.W.W.W.W.W.W.W.B..aSbxbxbx",
"bxbxbxbxbxbxbxaq#d#w.W.W.W.W.W.W.W.W.W.W.W.W.W.W.W#G#E.Lbq.sbxbqbgbxbxbxbxbxbxbxbxbxbxbxbxbxbx.ybO.....u.W.W.W.W.W.W.W.W.W.W.W.W.W.W.W.W.W.W.W.W#w#d#tbxbxbx",
"bxbxbxbxbxbx.N.q#y#F.W.W.W.W.W.W.W.W.W.W.W.W.W.W.W#G.g.IbxbxbxbxbqbxbxbxbxbxbqaXbubKbxbxbxbxbx.Mac....#IaC.W.W.W.W.W.W.W.W.W.W.W.W.W.W.W.W.W.W.W.2#y.q.Nbxbx",
"bxbxbxbxbxbx#Dac.F.W.W.W.W.W.W.W.W.W.W.W.W.W.W.W.W.W#J.f#raYbia4bOa4bMapaB.paJbxbxbxbxbxbxbxbxbT#y.....oaI.W.W.W.W.W.W.W.W.W.W.W.W.W.W.W.W.W.W.W.W#v###Dbxbx",
"bxbxbxbxbxbxbn###k.W.W.W.W.W.W.W.W.W.W.W.W.W.W.W.W.W.W.W#Y#Jai.b#EbmbLbFbxbxbxbxbxbxbxbxbxbxbx.z.........b.W.W.W.W.W.W.W.W.W.W.W.W.W.W.W.W.W.W.W.W#k##.rbxbx",
"bxbxbxbxbxbx.rbe.f.W.W.W.W.W.W.W.W.W.W.W.W.W.W.W.W.W.W.W.W.W#Y#Y#Y#Mb#.Lbxbxbxbxbxbxbxbxbxbxbdab.........B.W.W.W.W.W.W.W.W.W.W.W.W.W.W.W.W.W.W.W.W.fbe.rbxbx",
"bxbxbxbxbxbx.rbe.f.W.W.W.W.W.W.W.W.W.W.W.W.Waj#w#G#w#w#G.W.W.W.W.W#Y#MaD.Nbxbxbxbxbxbx.8bEaF#S..........#4#J.W.W.W.W.W.W.W.W.W.W.W.W.W.W.W.W.W.W.WbH.D.rbxbx",
"bxbxbxbxbxbx.r##.5.W.W.W.W.W.W.W.W.W.W.W.W.Wae#6#I.d.d#6aU.W.W.W.W#Y#J.H#R#Qbxbx.y.k#lbB#0.................E.W.W.W.W.W.W.W.W.W.W.W.W.W.W.W.W.W.W.W.5ac.rbxbx",
"bxbxbxbxbxbx.rbe.f.W.W.W.W.W.W.W.W.W.W.W.WaC.g.Y#c#p#L#laY.W.W.W.W#xaZ....ar#AaH#SaG...c.D.hbp............#m.W.W.W.W.W.W.W.W.W.W.W.W.W.W.W.W.W.W.W.f##aLbxbx",
"bxbxbxbxbxbx.rbe.5.W.W.W.W.W.W.W.W.W.W.W.W#G.HarbxbxbxaH.v.W.W.WaKacaPa#..bm.iaRaG#7aMaO#2.D..............#g.W.W.W.W.W.W.W.W.W.W.W.W.W.W.W.W.W.W.W.5be.rbxbx",
"bxbxbxbxbxbx.rbe.f.W.W.W.W.W.W.W.W.W.W.W.W.W#M.SbobxaX.7.O#Y.W#J.7..a..##9.haP#u.Pbp#q#U.##hbcbJ..........#g.W.W.W.W.W.W.W.W.W.Wa9#G.W.W.W.W.W.W.W.f##.rbxbx",
"bxbxbxbxbxbxbn###k.W.W.W.W.W.W.W.W.W.WaI#3aqaeaNbobxbo.7#3#Y.W.WbH.o.iaR..bm#U#2bjaQ.qa7b.bdbqbR..........#I.W.W.W.W.W.W.W.WaCa8a6aC.W.W.W.W.W.W.W#kbebnbxbx",
"bxbxbxbxbxbx#zbe.m.W.W.W.W.W.W.W.W#w.Z.k.8aa#sahbobxbxbx.w#0.gbGbtbm........b#bobx.jaT.ybxbxaJbm.........RbN.W.W.W.W.W.W.Wa1aGaK.0#G.W.W.W.W.W.W.Wa6.D#zbxbx",
"bxbxbxbxbxbx#Ba0#y.2.W.W.W.W.W.W.Wa2#y#pbx.NaXaN.jbxazaB#KaLbI#j.3............aN.y#iaFbxbxbxa7....#dbrae.W.W.W.W.W.W.W#GaKaAa8.W.W.W.W.W.W.W.W.W.2#ya0.Nbxbx",
"bxbxbxbxbxbxbxaq###w.W.W.W.W.W.W.W.x#ma4aFambk.C.1bAad#saJbxbxbxah..............#Obi#1bxbxbTao.....5#Y.W.W.W.W.W.W#F#3.l.t#3#Y.W.W.W.W.W.W.W.W.W#w#daqbxbxbx",
"bxbxbxbxbxbxbx#ibe.B.W.W.W.W.W.W.WaCaU.obm#eadbiahbR#Zata0bsbF#Dbe..............#K#l.ybxbx.p......#H#Y.W.WaCaIag#Iao.....u.W.W.W.W.W.W.W.W.W.W.W.B..aSbxbxbx",
"bxbxbxbxbxbxbx#Dbe.laC.W.W.W.W.W.W.W.WbQaYbt..au.jah.t.RaeaYbv.o................bObMbxbxbx#P......#4aqaqawaYao........#4a9.W.W.W.W.W.W.W.W.W.WaC.l##bnbxbxbx",
"bxbxbxbxbxbxbx.y.Y.Ga9.W.W.W.W.W.W.W.W.W.W.x#I.C#6.v#F#Y#Y.W#G#4.................z#4bEbx.8bD#y.....V.z#8aL.j#A##....#m.e.W.W.W.W.W.W.W.W.W.W.Wa9.G.Y.8bxbxbx",
"bxbxbxbxbxbxbxbxawbe#k.W.W.W.W.W.W.W.W.W.W.WaC.2aI#Y#Y.W.W.W.W#g..............#g.yax.4#obxbxbT#8beaB#a#S#lbC#R.....uav#Y.W.W.W.W.W.W.W.W.W.W.W#kbeafbxbxbxbx",
"bxbxbxbxbxbxbxbx.s#d.laC.W.W.W.W.W.W.W.W.W.W.W#Y.W.W.W.W.W.W.W#r.............C#Bbx.8#lak#obxbxbxaLaoaZ.ka5..#0.vba.W.W.W.W.W.W.W.W.W.W.W.W.W.A.l#d.sbxbxbxbx",
"bxbxbxbxbxbxbxbx.y.6#d.5.W.W.W.W.W.W.W.W.W.W.W.W.W.W.W.W.W.W.Wava0......be#8bgbxbxbxbqbC.4#obxbxbxbK.YbxanaZ#F#Y#Y.W.W.W.W.W.W.W.W.W.W.W.W.W.5#d.6#pbxbxbxbx",
"bxbxbxbxbxbxbxbxbx#B.6###H.W.W.W.W.W.W.W.W.W.W.W.W.W.W.W.W.W.W.W#Y.B##brax#PaB##b##Qbxbx.8axb#ap.kanbR#gba.W.W.W.W.W.W.W.W.W.W.W.W.W.W.W.W#H##bv#Bbxbxbxbxbx",
"bxbxbxbxbxbxbxbxbxbx.T#y.laC.W.W.W.W.W.W.W.W.W.W.W.W.W.W.W.W.W.W.W#Y.9.oa5#B.L#i##albxbxbxbxbb#i.K#C#S#F#Y.W.W.W.W.W.W.W.W.W.W.W.W.W.W.WaC.l#d.Tbxbxbxbxbxbx",
"bxbxbxbxbxbxbxbxbxbx.ybvbeaK.W.W.W.W.W.W.W.W.W.W.W.W.W.W.W.W.W.Oa6.gbh#0bmaB#e.K.4be#s.M.8bxbxbxbx.p#5#Y.W.W.W.W.W.W.W.W.W.W.W.W.W.W.W.W#kbe.g.ybxbxbxbxbxbx",
"bxbxbxbxbxbxbxbxbxbxbx#f.G#m#H.W.W.W.W.W.W.W.W.W.W.W.W.W.W#GagaD#.#V#oaFbe.V#O#jbF.sa7aNbh.ybxbxbx#OaV.W.W.W.W.W.W.W.W.W.W.W.W.W.W.W.W.9#m.G#fbxbxbxbxbxbxbx",
"bxbxbxbxbxbxbxbxbxbxbx.8aa#q#EaC.W.W.W.W.W.W.W.W.W.W.W.W.WaU.o#nahaf.T#bbE.Jbxbxbxbx#Q.JbzbgbxbxbxbF#6ai.W.W.W.W.W.W.W.W.W.W.W.W.W.W.A.g#qaa.8bxbxbxbxbxbxbx",
"bxbxbxbxbxbxbxbxbxbxbxbx#p.6##.aaC.W.W.W.W.W.W.W.W.W.W.W.W.9bf.C.1bg#Ray#XaF#Qbx.8#VaY#Bbxbxbxbxbxbxaua3.W.W.W.W.W.W.W.W.W.W.W.W.WaC.a##.6#pbxbxbxbxbxbxbxbx",
"bxbxbxbxbxbxbxbxbxbxbxbxbx#z.Y#y.FaC.W.W.W.W.W.W.W.W.W.W.W.W.X.g#TaEab.J#tanbxbxblbO#BbxbxbxbqbFbFbFam#3.W.W.W.W.W.W.W.W.W.W.W.WaC.F#y.Y#zbxbxbxbxbxbxbxbxbx",
"bxbxbxbxbxbxbxbxbxbxbxbxbxbx#Dbc.G#kaC.W.W.W.W.W.W.W.W.W.W.W.W.W.W.2.6.obwbS.pblbe.C.pasasasaT#K.C#Ka0ba#Y.W.W.W.W.W.W.W.W.W.WaC#k.Gbc#Dbxbxbxbxbxbxbxbxbxbx",
"bxbxbxbxbxbxbxbxbxbxbxbxbxbxbx.r#m.G#kaC.W.W.W.W.W.W.W.W.W.W.W.W.W.WaC#H#H#H.B.B.b#H.B#H.Ba2#H#w.b#w.xbN.W.W.W.W.W.W.W.W.W.WaC#k.G#m.rbxbxbxbxbxbxbxbxbxbxbx",
"bxbxbxbxbxbxbxbxbxbxbxbxbxbxbxbxbx.r#g#y.aaC.W.W.W.W.W.W.W.W.W.W.W.W.W.W.W.W.W.W.W.W.W.W.W.W.W.W.W.W.W.W.W.W.W.W.W.W.W.WaC.a#y#m.rbxbxbxbxbxbxbxbxbxbxbxbxbx",
"bxbxbxbxbxbxbxbxbxbxbxbxbxbxbxbxbxbx#D#Iac.g#H.W.W.W.W.W.W.W.W.W.W.W.W.W.W.W.W.W.W.W.W.W.W.W.W.W.W.W.W.W.W.W.W.W.W.W.W#H.gbe#I#fbxbxbxbxbxbxbxbxbxbxbxbxbxbx",
"bxbxbxbxbxbxbxbxbxbxbxbxbxbxbxbxbxbxbx#z.6.D#m.fa9.W.W.W.W.W.W.W.W.W.W.W.W.W.W.W.W.W.W.W.W.W.W.W.W.W.W.W.W.W.W.W.W#J.f#m.D.6#zbxbxbxbxbxbxbxbxbxbxbxbxbxbxbx",
"bxbxbxbxbxbxbxbxbxbxbxbxbxbxbxbxbxbxbxbx.Naa#Sbe.l#HbU.W.W.W.W.W.W.W.W.W.W.W.W.W.W.W.W.W.W.W.W.W.W.W.W.W.W.W.W.e#H.lbe#Saa#pbxbxbxbxbxbxbxbxbxbxbxbxbxbxbxbx",
"bxbxbxbxbxbxbxbxbxbxbxbxbxbxbxbxbxbxbxbxbx.8#fbvao#d#E.5a9.W.W.W.W.W.W.W.W.W.W.W.W.W.W.W.W.W.W.W.W.W.W.W.W#J.5.g#d#dbv#f.8bxbxbxbxbxbxbxbxbxbxbxbxbxbxbxbxbx",
"bxbxbxbxbxbxbxbxbxbxbxbxbxbxbxbxbxbxbxbxbxbxbx.y.Tbv###d.6#ka9aC.W.W.W.W.W.W.W.W.W.W.W.W.W.W.W.W.W.WaCa9#k.6#d##.6.T.ybxbxbxbxbxbxbxbxbxbxbxbxbxbxbxbxbxbxbx",
"bxbxbxbxbxbxbxbxbxbxbxbxbxbxbxbxbxbxbxbxbxbxbxbxbx#B.r.6#d..a0.l.B#w.2.W.W.W.W.W.W.W.W.W.W.W.W.2#w.B.l.G..#d.6.r#Bbxbxbxbxbxbxbxbxbxbxbxbxbxbxbxbxbxbxbxbxbx",
"bxbxbxbxbxbxbxbxbxbxbxbxbxbxbxbxbxbxbxbxbxbxbxbxbxbxbx#p#zaf.Y##be##.o.m.F#k.f#M.f.5#M.f#k#va6#y#dbe##.Yaw.s#pbxbxbxbxbxbxbxbxbxbxbxbxbxbxbxbxbxbxbxbxbxbxbx",
"bxbxbxbxbxbxbxbxbxbxbxbxbxbxbxbxbxbxbxbxbxbxbxbxbxbxbxbxbxbx.y#DaSaq.qac##be##.D##.Dac.D######a0aqaS.r.ybxbxbxbxbxbxbxbxbxbxbxbxbxbxbxbxbxbxbxbxbxbxbxbxbxbx"
};
